<?xml version="1.0" encoding="UTF-8"?>
<svg version="1.1" xmlns="http://www.w3.org/2000/svg" width="166" height="170">
<path d="M0 0 C2.63858737 0.05022795 5.2772668 0.0958434 7.91601562 0.13671875 C14.3418719 0.24622682 20.76425211 0.41296719 27.1875 0.625 C25.87056959 4.57579122 23.33366434 6.08744439 20.125 8.5 C18.84141413 9.48563433 17.55890344 10.47267008 16.27734375 11.4609375 C15.60558105 11.9775293 14.93381836 12.49412109 14.24169922 13.02636719 C10.84471946 15.66998776 7.51818826 18.3986754 4.1875 21.125 C-1.33516163 25.63348447 -6.9043636 30.07344144 -12.5234375 34.4609375 C-17.68851807 38.50419062 -22.77249243 42.64347247 -27.85375977 46.79125977 C-32.66757348 50.71369098 -37.53019239 54.56648539 -42.43774414 58.37084961 C-45.76054309 60.96196247 -49.00924165 63.62098165 -52.21875 66.3515625 C-52.97164307 66.98779541 -53.72453613 67.62402832 -54.50024414 68.27954102 C-55.96338624 69.52039349 -57.4187929 70.7704453 -58.86499023 72.03100586 C-59.53731689 72.59956299 -60.20964355 73.16812012 -60.90234375 73.75390625 C-61.48878662 74.25994385 -62.07522949 74.76598145 -62.67944336 75.28735352 C-69.18684398 79.36816478 -77.5308761 79.47475917 -84.96484375 80.3515625 C-86.22011368 80.50410492 -87.47538361 80.65664734 -88.76869202 80.81381226 C-92.08406439 81.21568105 -95.39994531 81.61267271 -98.71618652 82.00726318 C-102.10881575 82.41217545 -105.50065984 82.8235574 -108.89257812 83.234375 C-115.5318487 84.03717878 -122.17186622 84.83355597 -128.8125 85.625 C-128.07128906 85.69635666 -127.33007812 85.76771332 -126.56640625 85.8412323 C-119.50082262 86.53163609 -112.44354338 87.27686587 -105.3901062 88.08065319 C-101.7652708 88.49185833 -98.14075588 88.88322917 -94.50878906 89.22631836 C-78.00721249 90.80003204 -64.18450339 92.29916871 -52.35594177 105.045578 C-49.77154945 107.69021686 -46.82552933 109.84669698 -43.875 112.0625 C-37.86574097 116.73880366 -31.99566235 121.57507443 -26.13134766 126.43115234 C-21.16314851 130.53629405 -16.13396872 134.55033817 -11.05078125 138.51171875 C-5.9115665 142.52453026 -0.85687826 146.63690964 4.19165039 150.76293945 C9.4078869 155.01696377 14.68808623 159.18342962 20.0234375 163.28710938 C21.42896143 164.3775452 22.81107711 165.49805376 24.1875 166.625 C24.1875 166.955 24.1875 167.285 24.1875 167.625 C16.40084128 167.98409433 8.61635848 168.2267882 0.82324219 168.39404297 C-1.82238943 168.45591499 -4.45697836 168.55875455 -7.1015625 168.68115234 C-22.2221526 169.3627244 -33.65507732 169.52751761 -45.32199097 159.02218628 C-46.58093609 157.8131473 -47.8252866 156.58867086 -49.05235291 155.34729004 C-51.71682291 152.74012718 -54.63235694 150.59483563 -57.625 148.375 C-58.65238281 147.58609375 -59.67976563 146.7971875 -60.73828125 145.984375 C-62.26001953 144.81648438 -62.26001953 144.81648438 -63.8125 143.625 C-65.97960847 141.95890747 -68.14604953 140.29194801 -70.3125 138.625 C-71.39582124 137.79165095 -72.47915456 136.95831759 -73.5625 136.125 C-93.0625 121.125 -93.0625 121.125 -94.68652344 119.87573242 C-95.77308779 119.03992624 -96.85967645 118.20415165 -97.94628906 117.3684082 C-100.60538548 115.32316364 -103.2639994 113.27730009 -105.921875 111.23046875 C-110.68715188 107.56167971 -115.45488144 103.89635503 -120.234375 100.24609375 C-120.99331055 99.66641846 -121.75224609 99.08674316 -122.53417969 98.48950195 C-124.01879826 97.35599281 -125.50380526 96.22299217 -126.98925781 95.09057617 C-130.63158584 92.30993408 -134.24885218 89.50654335 -137.8125 86.625 C-136.30084982 82.74653755 -134.09487944 81.08458692 -130.75 78.6875 C-129.66324096 77.89696148 -128.57735482 77.10522205 -127.4921875 76.3125 C-126.90276367 75.88453125 -126.31333984 75.4565625 -125.70605469 75.015625 C-122.22323957 72.45784845 -118.80273147 69.81836174 -115.375 67.1875 C-114.64821045 66.63094727 -113.9214209 66.07439453 -113.17260742 65.50097656 C-106.71129897 60.55262678 -100.26053155 55.59063234 -93.8125 50.625 C-91.64605349 48.95804708 -89.47927503 47.29152587 -87.3125 45.625 C-86.22916062 44.79167453 -85.14582728 43.9583412 -84.0625 43.125 C-73.22916667 34.79166667 -62.39583333 26.45833333 -51.5625 18.125 C-50.80481071 17.53955917 -50.80481071 17.53955917 -50.03181458 16.94229126 C-48.42595248 15.71192415 -46.80279777 14.50421927 -45.1784668 13.29833984 C-42.97263121 11.61499344 -41.25883747 10.02906855 -39.34692383 7.97119141 C-28.44870765 -2.84337065 -14.36567484 -0.47589272 0 0 Z " fill="#ffffff" transform="translate(137.8125,2.375)"/>
<path d="M0 0 C8.37473517 7.17834443 16.551449 14.55169045 24.65209961 22.03588867 C28.23027779 25.33150229 31.89763785 28.49401451 35.671875 31.5625 C37 33 37 33 37 36 C34.87964107 37.94670885 32.77818191 39.69210283 30.5 41.4375 C29.83234619 41.95957031 29.16469238 42.48164062 28.47680664 43.01953125 C26.32737792 44.69244866 24.16595092 46.34854041 22 48 C21.27925293 48.55059082 20.55850586 49.10118164 19.81591797 49.66845703 C16.4087563 52.2636208 12.99151427 54.84524538 9.55859375 57.40625 C8.74346313 58.01436523 8.74346313 58.01436523 7.91186523 58.63476562 C5.3186672 60.48652956 2.65131827 62.23245449 0 64 C0 42.88 0 21.76 0 0 Z " fill="#ffffff" transform="translate(0,3)"/>
<path d="M0 0 C2.64 1.98 5.28 3.96 8 6 C9.25039062 6.93199219 10.50078125 7.86398438 11.7890625 8.82421875 C20.63148539 15.41957232 29.35986439 22.14189236 38 29 C30.71079356 38.16357381 21.6350459 45.85582557 12.7734375 53.46484375 C11.53106653 54.54028823 10.30850646 55.63884897 9.1015625 56.75390625 C8.18503906 57.58728516 8.18503906 57.58728516 7.25 58.4375 C6.71890625 58.93121094 6.1878125 59.42492187 5.640625 59.93359375 C4 61 4 61 0 61 C0 40.87 0 20.74 0 0 Z " fill="#ffffff" transform="translate(0,109)"/>
</svg>
